<svg class="svg-icon" style="width: 1em; height: 1em;vertical-align: middle;fill: currentColor;overflow: hidden;" viewBox="0 0 1024 1024" version="1.1" xmlns="http://www.w3.org/2000/svg"><path d="M917.333333 938.666667 106.666667 938.666667c-58.816 0-106.666667-47.850667-106.666667-106.666667L0 234.666667c0-58.816 47.850667-106.666667 106.666667-106.666667l810.666667 0c58.816 0 106.666667 47.850667 106.666667 106.666667l0 597.333333C1024 890.816 976.149333 938.666667 917.333333 938.666667zM106.666667 170.666667c-35.285333 0-64 28.714667-64 64l0 597.333333c0 35.285333 28.714667 64 64 64l810.666667 0c35.285333 0 64-28.714667 64-64L981.333333 234.666667c0-35.285333-28.714667-64-64-64L106.666667 170.666667z"  /><path d="M1002.666667 384 21.333333 384c-11.797333 0-21.333333-9.557333-21.333333-21.333333s9.536-21.333333 21.333333-21.333333l981.333333 0c11.797333 0 21.333333 9.557333 21.333333 21.333333S1014.464 384 1002.666667 384z"  /><path d="M170.666667 256m-42.666667 0a2 2 0 1 0 85.333333 0 2 2 0 1 0-85.333333 0Z"  /><path d="M298.666667 256m-42.666667 0a2 2 0 1 0 85.333333 0 2 2 0 1 0-85.333333 0Z"  /><path d="M426.666667 256m-42.666667 0a2 2 0 1 0 85.333333 0 2 2 0 1 0-85.333333 0Z"  /></svg>